<?xml version="1.0" encoding="UTF-8" standalone="no"?>
<svg width="27px" height="27px" viewBox="0 0 27 27" version="1.1" xmlns="http://www.w3.org/2000/svg" xmlns:xlink="http://www.w3.org/1999/xlink" xmlns:sketch="http://www.bohemiancoding.com/sketch/ns">
    <!-- Generator: Sketch 3.3.3 (12081) - http://www.bohemiancoding.com/sketch -->
    <title>chevron-down-icon</title>
    <desc>Created with Sketch.</desc>
    <defs></defs>
    <g id="Page-1" stroke="none" stroke-width="1" fill="none" fill-rule="evenodd" sketch:type="MSPage">
        <g id="chevron-down-icon" sketch:type="MSArtboardGroup" fill="#659EFF">
            <g id="chevron-down" sketch:type="MSLayerGroup" transform="translate(8.000000, 10.000000)">
                <path d="M0.516,0.548 C0.952,0.102 1.559,0.067 2.092,0.548 L6,4.295 L9.908,0.548 C10.441,0.067 11.049,0.102 11.482,0.548 C11.918,0.993 11.89,1.745 11.482,2.163 C11.076,2.581 6.787,6.665 6.787,6.665 C6.57,6.888 6.285,7 6,7 C5.715,7 5.43,6.888 5.211,6.665 C5.211,6.665 0.924,2.581 0.516,2.163 C0.107,1.745 0.08,0.993 0.516,0.548 L0.516,0.548 Z" id="Shape" sketch:type="MSShapeGroup"></path>
            </g>
        </g>
    </g>
</svg>