<?xml version="1.0" encoding="UTF-8" standalone="no"?>
<svg width="27px" height="27px" viewBox="0 0 27 27" version="1.1" xmlns="http://www.w3.org/2000/svg" xmlns:xlink="http://www.w3.org/1999/xlink" xmlns:sketch="http://www.bohemiancoding.com/sketch/ns">
    <!-- Generator: Sketch 3.3.3 (12081) - http://www.bohemiancoding.com/sketch -->
    <title>dribbble-icon</title>
    <desc>Created with Sketch.</desc>
    <defs></defs>
    <g id="Page-1" stroke="none" stroke-width="1" fill="none" fill-rule="evenodd" sketch:type="MSPage">
        <g id="dribbble-icon" sketch:type="MSArtboardGroup" fill="#FFFFFF">
            <g id="dribbble" sketch:type="MSLayerGroup" transform="translate(4.000000, 4.000000)">
                <path d="M9.565,7.421 C8.207,5.007 6.754,3.038 6.648,2.893 C4.457,3.929 2.822,5.948 2.311,8.38 C2.517,8.384 5.793,8.423 9.565,7.421 L9.565,7.421 Z M10.543,10.061 C10.645,10.028 10.749,9.997 10.852,9.967 C10.655,9.52 10.44,9.072 10.215,8.631 C6.169,9.843 2.287,9.755 2.15,9.751 C2.147,9.835 2.143,9.917 2.143,10.001 C2.143,12.02 2.906,13.862 4.159,15.253 L4.154,15.247 C4.154,15.247 6.304,11.433 10.543,10.061 L10.543,10.061 Z M5.171,16.194 L5.171,16.19 C5.113,16.145 5.051,16.104 4.993,16.055 C5.099,16.14 5.171,16.194 5.171,16.194 L5.171,16.194 Z M8.118,2.372 C8.111,2.374 8.103,2.376 8.103,2.376 C8.109,2.374 8.117,2.374 8.117,2.374 L8.118,2.372 L8.118,2.372 Z M15.189,4.104 C13.805,2.886 11.99,2.143 10,2.143 C9.361,2.143 8.742,2.221 8.148,2.364 C8.268,2.524 9.743,4.483 11.086,6.948 C14.048,5.839 15.167,4.136 15.189,4.104 L15.189,4.104 Z M10,19.2 C4.92,19.2 0.801,15.081 0.801,10.001 C0.8,4.919 4.919,0.8 10,0.8 C15.082,0.8 19.2,4.919 19.2,10.001 C19.2,15.081 15.082,19.2 10,19.2 L10,19.2 Z M11.336,11.286 C6.725,12.893 5.202,16.124 5.171,16.19 C6.505,17.231 8.177,17.856 9.999,17.856 C11.087,17.856 12.124,17.635 13.066,17.235 C12.95,16.546 12.493,14.139 11.387,11.268 C11.371,11.274 11.354,11.28 11.336,11.286 L11.336,11.286 Z M11.69,8.12 C11.874,8.493 12.048,8.874 12.213,9.259 C12.272,9.394 12.327,9.531 12.383,9.665 C15.096,9.323 17.768,9.903 17.856,9.921 C17.837,8.058 17.17,6.349 16.069,5.009 C16.051,5.032 14.79,6.852 11.69,8.12 L11.69,8.12 Z M12.861,10.905 C13.892,13.741 14.31,16.047 14.39,16.516 C16.154,15.325 17.408,13.436 17.757,11.246 C17.601,11.196 15.401,10.499 12.861,10.905 L12.861,10.905 Z" id="Shape" sketch:type="MSShapeGroup"></path>
            </g>
        </g>
    </g>
</svg>