<?xml version="1.0" encoding="UTF-8" standalone="no"?>
<svg width="27px" height="27px" viewBox="0 0 27 27" version="1.1" xmlns="http://www.w3.org/2000/svg" xmlns:xlink="http://www.w3.org/1999/xlink" xmlns:sketch="http://www.bohemiancoding.com/sketch/ns">
    <!-- Generator: Sketch 3.3.3 (12081) - http://www.bohemiancoding.com/sketch -->
    <title>github-icon</title>
    <desc>Created with Sketch.</desc>
    <defs></defs>
    <g id="Page-1" stroke="none" stroke-width="1" fill="none" fill-rule="evenodd" sketch:type="MSPage">
        <g id="github-icon" sketch:type="MSArtboardGroup" fill="#FFFFFF">
            <g id="github" sketch:type="MSLayerGroup" transform="translate(4.000000, 6.000000)">
                <path d="M13.18,9.309 C12.462,9.309 11.88,10.116 11.88,11.108 C11.88,12.102 12.462,12.909 13.18,12.909 C13.898,12.909 14.48,12.102 14.48,11.108 C14.479,10.116 13.898,9.309 13.18,9.309 L13.18,9.309 Z M17.706,4.626 C17.855,4.261 17.861,2.187 17.071,0.2 C17.071,0.2 15.26,0.399 12.52,2.28 C11.945,2.12 10.972,2.042 10.001,2.042 C9.028,2.042 8.056,2.12 7.481,2.28 C4.74,0.399 2.929,0.2 2.929,0.2 C2.14,2.187 2.148,4.261 2.295,4.626 C1.367,5.634 0.8,6.845 0.8,8.497 C0.8,15.683 6.763,15.798 8.267,15.798 C8.609,15.798 9.285,15.8 10.001,15.8 C10.716,15.8 11.393,15.798 11.733,15.798 C13.239,15.798 19.2,15.683 19.2,8.497 C19.2,6.845 18.634,5.634 17.706,4.626 L17.706,4.626 Z M10.028,14.915 L9.972,14.915 C6.201,14.915 3.263,14.466 3.263,10.8 C3.263,9.921 3.573,9.107 4.31,8.431 C5.537,7.304 7.615,7.9 9.972,7.9 L10.001,7.9 L10.028,7.9 C12.385,7.9 14.464,7.304 15.692,8.431 C16.427,9.107 16.737,9.921 16.737,10.8 C16.737,14.466 13.8,14.915 10.028,14.915 L10.028,14.915 Z M6.821,9.309 C6.103,9.309 5.521,10.116 5.521,11.108 C5.521,12.102 6.103,12.909 6.821,12.909 C7.54,12.909 8.122,12.102 8.122,11.108 C8.122,10.116 7.54,9.309 6.821,9.309 L6.821,9.309 Z" id="Shape" sketch:type="MSShapeGroup"></path>
            </g>
        </g>
    </g>
</svg>