<?xml version="1.0" encoding="UTF-8" standalone="no"?>
<svg width="27px" height="27px" viewBox="0 0 27 27" version="1.1" xmlns="http://www.w3.org/2000/svg" xmlns:xlink="http://www.w3.org/1999/xlink" xmlns:sketch="http://www.bohemiancoding.com/sketch/ns">
    <!-- Generator: Sketch 3.3.3 (12081) - http://www.bohemiancoding.com/sketch -->
    <title>grid-icon</title>
    <desc>Created with Sketch.</desc>
    <defs></defs>
    <g id="Page-1" stroke="none" stroke-width="1" fill="none" fill-rule="evenodd" sketch:type="MSPage">
        <g id="grid-icon" sketch:type="MSArtboardGroup" fill="#659EFF">
            <g id="grid" sketch:type="MSLayerGroup" transform="translate(8.000000, 8.000000)">
                <path d="M4,0 L1,0 C0.447,0 0,0.447 0,1 L0,4 C0,4.552 0.447,5 1,5 L4,5 C4.553,5 5,4.552 5,4 L5,1 C5,0.448 4.553,0 4,0 L4,0 Z M11,0 L8,0 C7.447,0 7,0.447 7,1 L7,4 C7,4.552 7.447,5 8,5 L11,5 C11.553,5 12,4.552 12,4 L12,1 C12,0.448 11.553,0 11,0 L11,0 Z M4,7 L1,7 C0.447,7 0,7.447 0,8 L0,11 C0,11.552 0.447,12 1,12 L4,12 C4.553,12 5,11.552 5,11 L5,8 C5,7.448 4.553,7 4,7 L4,7 Z M11,7 L8,7 C7.447,7 7,7.447 7,8 L7,11 C7,11.552 7.447,12 8,12 L11,12 C11.553,12 12,11.552 12,11 L12,8 C12,7.448 11.553,7 11,7 L11,7 Z" id="Shape" sketch:type="MSShapeGroup"></path>
            </g>
        </g>
    </g>
</svg>