<?xml version="1.0" encoding="UTF-8" standalone="no"?>
<svg width="27px" height="27px" viewBox="0 0 27 27" version="1.1" xmlns="http://www.w3.org/2000/svg" xmlns:xlink="http://www.w3.org/1999/xlink" xmlns:sketch="http://www.bohemiancoding.com/sketch/ns">
    <!-- Generator: Sketch 3.3.3 (12081) - http://www.bohemiancoding.com/sketch -->
    <title>instagram-icon</title>
    <desc>Created with Sketch.</desc>
    <defs></defs>
    <g id="Page-1" stroke="none" stroke-width="1" fill="none" fill-rule="evenodd" sketch:type="MSPage">
        <g id="instagram-icon" sketch:type="MSArtboardGroup" fill="#FFFFFF">
            <g id="instagram" sketch:type="MSLayerGroup" transform="translate(5.000000, 5.000000)">
                <path d="M16,0 L2,0 C0.9,0 0,0.9 0,2 L0,16 C0,17.101 0.9,18 2,18 L16,18 C17.1,18 18,17.101 18,16 L18,2 C18,0.9 17.1,0 16,0 L16,0 Z M8.984,14.523 C12.043,14.523 14.522,12.042 14.522,8.984 C14.522,8.646 14.479,8.32 14.419,8 L16,8 L16,15.216 C16,15.598 15.69,15.906 15.307,15.906 L2.693,15.906 C2.31,15.906 2,15.598 2,15.216 L2,8 L3.549,8 C3.488,8.32 3.445,8.646 3.445,8.984 C3.445,12.043 5.926,14.523 8.984,14.523 L8.984,14.523 Z M5.523,8.984 C5.523,7.072 7.073,5.523 8.985,5.523 C10.896,5.523 12.447,7.072 12.447,8.984 C12.447,10.896 10.896,12.446 8.985,12.446 C7.072,12.446 5.523,10.896 5.523,8.984 L5.523,8.984 Z M15.307,5 L13.692,5 C13.31,5 13,4.688 13,4.308 L13,2.691 C13,2.309 13.31,2 13.691,2 L15.306,2 C15.69,2 16,2.309 16,2.691 L16,4.307 C16,4.688 15.69,5 15.307,5 L15.307,5 Z" id="Shape" sketch:type="MSShapeGroup"></path>
            </g>
        </g>
    </g>
</svg>