<?xml version="1.0" encoding="UTF-8" standalone="no"?>
<svg width="27px" height="27px" viewBox="0 0 27 27" version="1.1" xmlns="http://www.w3.org/2000/svg" xmlns:xlink="http://www.w3.org/1999/xlink" xmlns:sketch="http://www.bohemiancoding.com/sketch/ns">
    <!-- Generator: Sketch 3.3.3 (12081) - http://www.bohemiancoding.com/sketch -->
    <title>linkedin-icon</title>
    <desc>Created with Sketch.</desc>
    <defs></defs>
    <g id="Page-1" stroke="none" stroke-width="1" fill="none" fill-rule="evenodd" sketch:type="MSPage">
        <g id="linkedin-icon" sketch:type="MSArtboardGroup" fill="#FFFFFF">
            <g id="linkedin" sketch:type="MSLayerGroup" transform="translate(5.000000, 4.000000)">
                <path d="M4,2 C4,3.1 3.3,4 2,4 C0.8,4 0,3.1 0,2.1 C0,1 0.8,0 2,0 C3.2,0 4,0.9 4,2 L4,2 Z M0,18 L4,18 L4,5 L0,5 L0,18 L0,18 Z M13.6,5.2 C11.5,5.2 10.3,6.4 9.8,7.2 L9.7,7.2 L9.5,5.5 L5.9,5.5 C5.9,6.6 6,7.9 6,9.4 L6,18 L10,18 L10,10.9 C10,10.5 10,10.2 10.1,9.9 C10.4,9.2 10.9,8.3 12,8.3 C13.4,8.3 14,9.5 14,11.1 L14,18 L18,18 L18,10.6 C18,6.9 16.1,5.2 13.6,5.2 L13.6,5.2 Z" id="Shape" sketch:type="MSShapeGroup"></path>
            </g>
        </g>
    </g>
</svg>