<?xml version="1.0" encoding="UTF-8" standalone="no"?>
<svg width="27px" height="27px" viewBox="0 0 27 27" version="1.1" xmlns="http://www.w3.org/2000/svg" xmlns:xlink="http://www.w3.org/1999/xlink" xmlns:sketch="http://www.bohemiancoding.com/sketch/ns">
    <!-- Generator: Sketch 3.3.3 (12081) - http://www.bohemiancoding.com/sketch -->
    <title>mail-icon</title>
    <desc>Created with Sketch.</desc>
    <defs></defs>
    <g id="Page-1" stroke="none" stroke-width="1" fill="none" fill-rule="evenodd" sketch:type="MSPage">
        <g id="mail-icon" sketch:type="MSArtboardGroup" fill="#FFFFFF">
            <g id="new48" sketch:type="MSLayerGroup" transform="translate(2.071429, 5.500000)">
                <path d="M1.0815735,0.413055657 C1.2611375,0.346510778 1.45327,0.304761905 1.6563147,0.304761905 L21.2008282,0.304761905 C21.4038729,0.304761905 21.5960054,0.346510778 21.7755694,0.413104372 L13.0186335,8.66252588 C12.1271952,9.50291073 10.7302399,9.50291073 9.83850932,8.66252588 L1.0815735,0.413055657 L1.0815735,0.413055657 Z M22.6129826,15.0724638 C22.7646815,14.8223115 22.8571429,14.5318232 22.8571429,14.2178054 L22.8571429,1.9610766 C22.8571429,1.73849714 22.8117403,1.52678115 22.731945,1.33270004 L14.5371331,9.05239313 L22.6129826,15.0724638 L22.6129826,15.0724638 Z M13.7961271,9.73913043 C13.1160151,10.3218122 12.2736329,10.6173182 11.4285714,10.6173182 C10.5835099,10.6173182 9.74107904,10.3221045 9.06101571,9.73913043 L1.00801364,15.7419559 C1.20745342,15.826769 1.42608696,15.8741688 1.6563147,15.8741688 L21.2008282,15.8741688 C21.4310559,15.8741688 21.6496894,15.826769 21.8491292,15.7419559 L13.7961271,9.73913043 L13.7961271,9.73913043 Z M0.12524662,1.33265132 C0.0454025088,1.52678115 0,1.73844842 0,1.9610766 L0,14.2178054 C0,14.5318232 0.0924126172,14.8223115 0.244160273,15.0724638 L8.32000974,9.05239313 L0.12524662,1.33265132 L0.12524662,1.33265132 Z" id="Shape" sketch:type="MSShapeGroup"></path>
            </g>
        </g>
    </g>
</svg>