<?xml version="1.0" encoding="UTF-8" standalone="no"?>
<svg width="27px" height="27px" viewBox="0 0 27 27" version="1.1" xmlns="http://www.w3.org/2000/svg" xmlns:xlink="http://www.w3.org/1999/xlink" xmlns:sketch="http://www.bohemiancoding.com/sketch/ns">
    <!-- Generator: Sketch 3.3.3 (12081) - http://www.bohemiancoding.com/sketch -->
    <title>skype-icon</title>
    <desc>Created with Sketch.</desc>
    <defs></defs>
    <g id="Page-1" stroke="none" stroke-width="1" fill="none" fill-rule="evenodd" sketch:type="MSPage">
        <g id="skype-icon" sketch:type="MSArtboardGroup" fill="#FFFFFF">
            <g id="skype" sketch:type="MSLayerGroup" transform="translate(4.000000, 4.000000)">
                <path d="M18.671,12.037 C18.803,11.414 18.874,10.765 18.874,10.099 C18.874,5.113 14.944,1.07 10.097,1.07 C9.586,1.07 9.085,1.117 8.597,1.203 C7.812,0.695 6.885,0.4 5.89,0.4 C3.079,0.4 0.8,2.744 0.8,5.637 C0.8,6.602 1.056,7.508 1.499,8.285 C1.383,8.871 1.321,9.479 1.321,10.1 C1.321,15.086 5.251,19.129 10.096,19.129 C10.647,19.129 11.183,19.078 11.703,18.979 C12.42,19.375 13.238,19.6 14.109,19.6 C16.92,19.6 19.199,17.256 19.199,14.364 C19.2,13.527 19.009,12.738 18.671,12.037 L18.671,12.037 Z M14.599,14.416 C14.193,15.006 13.593,15.475 12.816,15.807 C12.047,16.137 11.124,16.303 10.074,16.303 C8.814,16.303 7.757,16.076 6.931,15.625 C6.341,15.297 5.855,14.854 5.486,14.307 C5.114,13.752 4.925,13.203 4.925,12.674 C4.925,12.344 5.048,12.057 5.29,11.822 C5.53,11.59 5.839,11.47 6.206,11.47 C6.507,11.47 6.768,11.564 6.979,11.747 C7.181,11.923 7.354,12.185 7.493,12.52 C7.649,12.887 7.819,13.196 7.998,13.44 C8.17,13.674 8.418,13.872 8.733,14.026 C9.051,14.18 9.481,14.258 10.008,14.258 C10.733,14.258 11.328,14.1 11.776,13.785 C12.214,13.476 12.426,13.109 12.426,12.658 C12.426,12.301 12.315,12.021 12.086,11.801 C11.848,11.573 11.531,11.393 11.15,11.27 C10.751,11.143 10.209,11.004 9.539,10.86 C8.629,10.659 7.856,10.421 7.24,10.153 C6.61,9.878 6.103,9.495 5.732,9.016 C5.357,8.533 5.165,7.924 5.165,7.209 C5.165,6.527 5.365,5.912 5.761,5.381 C6.154,4.856 6.726,4.446 7.464,4.164 C8.192,3.887 9.06,3.746 10.04,3.746 C10.823,3.746 11.513,3.84 12.087,4.023 C12.665,4.209 13.153,4.459 13.536,4.767 C13.923,5.078 14.21,5.41 14.39,5.753 C14.572,6.103 14.665,6.448 14.665,6.784 C14.665,7.106 14.544,7.399 14.304,7.655 C14.064,7.913 13.761,8.042 13.404,8.042 C13.08,8.042 12.824,7.96 12.648,7.8 C12.484,7.652 12.312,7.417 12.124,7.083 C11.905,6.655 11.64,6.317 11.336,6.081 C11.041,5.849 10.548,5.731 9.87,5.731 C9.241,5.731 8.729,5.862 8.351,6.118 C7.983,6.367 7.806,6.65 7.806,6.984 C7.806,7.191 7.864,7.363 7.982,7.509 C8.107,7.667 8.283,7.804 8.505,7.919 C8.735,8.039 8.972,8.133 9.21,8.201 C9.454,8.271 9.864,8.373 10.425,8.508 C11.136,8.664 11.788,8.84 12.364,9.029 C12.949,9.222 13.454,9.459 13.866,9.734 C14.286,10.017 14.62,10.379 14.855,10.81 C15.092,11.244 15.212,11.779 15.212,12.4 C15.213,13.145 15.006,13.822 14.599,14.416 L14.599,14.416 Z" id="Shape" sketch:type="MSShapeGroup"></path>
            </g>
        </g>
    </g>
</svg>